<svg width="24" height="30" viewBox="0 0 24 30" fill="none" xmlns="http://www.w3.org/2000/svg">
<path d="M12 30C13.8935 30 15.4286 28.3211 15.4286 26.25H8.57143C8.57143 28.3211 10.1065 30 12 30Z" fill="#010127"/>
<path d="M13.706 2.06069C13.7115 1.9996 13.7143 1.93766 13.7143 1.875C13.7143 0.839466 12.9468 0 12 0C11.0532 0 10.2857 0.839466 10.2857 1.875C10.2857 1.93767 10.2885 1.99962 10.294 2.0607C6.37749 2.92584 3.42861 6.71126 3.42861 11.25C3.42861 13.308 2.57143 22.5 0 24.375H24C21.4286 22.5 20.5715 13.308 20.5715 11.25C20.5715 6.71123 17.6226 2.92579 13.706 2.06069Z" fill="#010127"/>
</svg>