<svg width="22" height="19" viewBox="0 0 22 19" fill="none" xmlns="http://www.w3.org/2000/svg">
<path d="M0 1.1875C0 0.531662 0.615609 0 1.375 0H8.25C9.00939 0 9.625 0.531662 9.625 1.1875V17.8125C9.625 18.4683 9.00939 19 8.25 19H1.375C0.615608 19 0 18.4683 0 17.8125V1.1875Z" fill="#DCDCE2"/>
<path d="M12.375 1.1875C12.375 0.531662 12.9906 0 13.75 0H20.625C21.3844 0 22 0.531662 22 1.1875V7.125C22 7.78084 21.3844 8.3125 20.625 8.3125H13.75C12.9906 8.3125 12.375 7.78084 12.375 7.125V1.1875Z" fill="#DCDCE2"/>
<path d="M12.375 11.875C12.375 11.2192 12.9906 10.6875 13.75 10.6875H20.625C21.3844 10.6875 22 11.2192 22 11.875V17.8125C22 18.4683 21.3844 19 20.625 19H13.75C12.9906 19 12.375 18.4683 12.375 17.8125V11.875Z" fill="#DCDCE2"/>
</svg>
