<svg width="22" height="26" viewBox="0 0 22 26" fill="none" xmlns="http://www.w3.org/2000/svg">
<path d="M0 4.33333C0 1.9401 4.92487 0 11 0C17.0751 0 22 1.9401 22 4.33333V6.5C22 8.89323 17.0751 10.8333 11 10.8333C4.92487 10.8333 0 8.89323 0 6.5V4.33333Z" fill="#DCDCE2"/>
<path d="M0 10.2933V15.1667C0 17.5599 4.92487 19.5 11 19.5C17.0751 19.5 22 17.5599 22 15.1667V10.2933C21.291 10.8114 20.4635 11.2338 19.5952 11.5758C17.2856 12.4857 14.2458 13 11 13C7.7542 13 4.71437 12.4857 2.40477 11.5758C1.53647 11.2338 0.709003 10.8114 0 10.2933Z" fill="#DCDCE2"/>
<path d="M22 18.96C21.291 19.4781 20.4635 19.9004 19.5952 20.2425C17.2856 21.1523 14.2458 21.6667 11 21.6667C7.7542 21.6667 4.71437 21.1523 2.40477 20.2425C1.53647 19.9004 0.709003 19.4781 0 18.96V21.6667C0 24.0599 4.92487 26 11 26C17.0751 26 22 24.0599 22 21.6667V18.96Z" fill="#DCDCE2"/>
</svg>
