<?xml version="1.0" encoding="utf-8"?>
<!-- Generator: Adobe Illustrator 24.3.0, SVG Export Plug-In . SVG Version: 6.00 Build 0)  -->
<svg version="1.1" id="Layer_1" xmlns="http://www.w3.org/2000/svg" xmlns:xlink="http://www.w3.org/1999/xlink" x="0px" y="0px"
	 viewBox="0 0 303.2 303.2" style="enable-background:new 0 0 303.2 303.2;" xml:space="preserve">
<style type="text/css">
	.st0{fill:#000835;}
	.st1{fill:url(#SVGID_1_);}
</style>
<g id="Layer_2_1_">
	<g id="Slides">
		<path class="st0" d="M-316.5-34h194.3c30.1,0,54.5,24.4,54.5,54.5v194.3c0,30.1-24.4,54.5-54.5,54.5h-194.3
			c-30.1,0-54.5-24.4-54.5-54.5V20.5C-371-9.6-346.6-34-316.5-34z"/>
		
			<linearGradient id="SVGID_1_" gradientUnits="userSpaceOnUse" x1="-272.632" y1="298.8247" x2="-142.502" y2="78.6247" gradientTransform="matrix(1 0 0 -1 0 306)">
			<stop  offset="5.000000e-02" style="stop-color:#00BDFF"/>
			<stop  offset="0.24" style="stop-color:#0895DF"/>
			<stop  offset="0.48" style="stop-color:#1169BB"/>
			<stop  offset="0.62" style="stop-color:#1554AA"/>
			<stop  offset="0.72" style="stop-color:#1848A0"/>
		</linearGradient>
		<path class="st1" d="M-141.8,44v93c0,0.9,0,1.8-0.1,2.8c-1.6,37.5-34.9,67.5-75.7,67.5c-0.5,0-1.1,0-1.6,0c-0.1,0-0.2,0-0.3,0
			c-0.5,0-1.1,0-1.6,0c-40.9,0-74.1-30-75.7-67.5c0-0.9-0.1-1.8-0.1-2.8V44c0-8.8,7.2-16,16-16h12.4c8.8,0,16,7.2,16,16v85.4
			c0,19.1,14.6,34.8,33.1,35.7h0.1c18.4-1,33.1-16.6,33.1-35.7V44c0-8.8,7.2-16,16-16h12.4C-149,28-141.9,35.1-141.8,44
			C-141.8,44-141.8,44-141.8,44z"/>
	</g>
</g>
</svg>
