<?xml version="1.0" encoding="utf-8"?>
<!-- Generator: Adobe Illustrator 22.1.0, SVG Export Plug-In . SVG Version: 6.00 Build 0)  -->
<svg version="1.1" id="Icons" xmlns="http://www.w3.org/2000/svg" xmlns:xlink="http://www.w3.org/1999/xlink" x="0px" y="0px"
	 viewBox="0 0 86 82" style="enable-background:new 0 0 86 82;" xml:space="preserve">
<g>
	<path d="M26.7,39c7,0,12.8-5.7,12.8-12.8s-5.7-12.8-12.8-12.8S14,19.2,14,26.2S19.7,39,26.7,39z"/>
	<path d="M42.6,57c12.2-4,23-9.7,29.9-14.9c3-2.2,3.5-6.2,1-9.3l1.5-4.1c0.5-1.2-0.2-2.7-1.4-3.2c-1.2-0.5-2.7,0.2-3.2,1.4l-1.4,3.8
		c-0.8,0-1.7,0.1-2.6,0.5c-21.2,11.9-28.5,11-41.2,11C13.5,42.3,5,46.9,5,59.8v10.9h37.6V57z"/>
	<rect x="47" y="11.3" width="34" height="3.4"/>
	<rect x="47" y="20.4" width="20.2" height="3.4"/>
</g>
</svg>
