<svg width="25" height="22" viewBox="0 0 25 22" fill="none" xmlns="http://www.w3.org/2000/svg">
<path d="M21.875 11.7857C21.875 13.5215 20.4759 14.9286 18.75 14.9286C17.0241 14.9286 15.625 13.5215 15.625 11.7857C15.625 10.05 17.0241 8.64286 18.75 8.64286C20.4759 8.64286 21.875 10.05 21.875 11.7857ZM12.5 20.7429C12.5 22 13.75 22 13.75 22H23.75C23.75 22 25 22 25 20.7429C25 19.4857 23.75 15.7143 18.75 15.7143C13.75 15.7143 12.5 19.4857 12.5 20.7429Z" fill="#DCDCE2"/>
<path d="M3.125 0C1.39911 0 0 1.4071 0 3.14286V15.7143C0 17.45 1.39911 18.8571 3.125 18.8571H11.317C11.5081 18.3442 11.7775 17.8067 12.1392 17.2857H3.125C2.26206 17.2857 1.5625 16.5822 1.5625 15.7143V3.14286C1.5625 2.27498 2.26206 1.57143 3.125 1.57143H21.875C22.7379 1.57143 23.4375 2.27498 23.4375 3.14286V15.4167C23.9897 15.7768 24.4621 16.195 24.8602 16.6466C24.9511 16.352 25 16.0389 25 15.7143V3.14286C25 1.4071 23.6009 0 21.875 0H3.125Z" fill="#DCDCE2"/>
</svg>
