<svg width="25" height="23" viewBox="0 0 25 23" fill="none" xmlns="http://www.w3.org/2000/svg">
<path d="M6.25 23C6.25 23 4.6875 23 4.6875 21.4667C4.6875 19.9333 6.25 15.3333 12.5 15.3333C18.75 15.3333 20.3125 19.9333 20.3125 21.4667C20.3125 23 18.75 23 18.75 23H6.25Z" fill="#DCDCE2"/>
<path d="M12.5 13.8767C14.6574 13.8767 16.4062 12.1604 16.4062 10.0433C16.4062 7.92626 14.6574 6.21001 12.5 6.21001C10.3426 6.21001 8.59375 7.92626 8.59375 10.0433C8.59375 12.1604 10.3426 13.8767 12.5 13.8767Z" fill="#DCDCE2"/>
<path d="M3.125 0C1.39911 0 0 1.37299 0 3.06667V17.6333C0 18.9036 1.04933 19.9333 2.34375 19.9333H3.36387C3.63776 18.9727 4.16419 17.87 5.02934 16.8667H1.5625V3.06667C1.5625 2.21983 2.26206 1.53333 3.125 1.53333H21.875C22.7379 1.53333 23.4375 2.21983 23.4375 3.06667V16.8667H19.9707C20.8358 17.87 21.3622 18.9727 21.6361 19.9333H22.6562C23.9507 19.9333 25 18.9036 25 17.6333V3.06667C25 1.37299 23.6009 0 21.875 0H3.125Z" fill="#DCDCE2"/>
</svg>
