<svg width="292" height="87" viewBox="0 0 292 87" fill="none" xmlns="http://www.w3.org/2000/svg">
<path d="M75.5324 17.7904H86.9846C87.2469 19.3203 87.9899 23.1669 89.4324 23.298H89.4761C91.2683 23.3417 93.9783 20.3257 96.1639 18.9269C98.8739 17.2222 101.846 17.1348 103.201 17.1348C104.338 17.1348 106.13 17.2222 108.053 17.5719C108.097 17.5719 108.709 17.703 109.059 17.7904C111.026 18.2275 113.386 19.6263 115.222 21.6807C118.325 25.1338 118.675 29.1989 118.762 30.3791C118.806 30.6414 118.806 31.1222 118.806 32.0401C118.893 35.843 118.806 38.6405 118.806 39.471C118.806 39.471 118.806 39.471 118.806 61.9821C118.806 62.1132 118.806 62.2443 118.806 62.3754H103.682V52.8902V41.3943C103.682 38.9902 103.682 37.3292 103.682 36.2364C103.682 36.1053 103.682 36.0178 103.682 35.8867C103.682 35.1436 103.638 33.3952 102.808 31.9527C101.671 29.942 99.4422 29.3301 99.3548 29.3301C96.6447 28.6307 94.022 30.2917 92.7544 31.909C91.8365 33.1329 91.5305 34.488 91.1808 35.8867C90.8311 37.3729 90.8311 38.5093 90.7874 39.1213C90.6563 43.6235 90.7437 49.1311 90.7874 50.3113V62.4629H75.4449V17.7904H75.5324Z" fill="#082567"/>
<path d="M141.885 17.4409H126.324V62.1134H141.885V17.4409Z" fill="#082567"/>
<path d="M126.455 7.03753C126.455 6.55671 126.324 3.97777 128.204 2.01078C130.04 0.043797 132.619 0.0437971 134.629 8.63433e-05C136.596 8.63433e-05 139.175 -0.0436247 140.967 1.83594C142.628 3.58437 142.672 5.90104 142.672 6.60042C142.672 7.29979 142.716 9.57275 141.055 11.4086C139.263 13.4193 136.596 13.5067 134.848 13.5504C133.099 13.5941 130.214 13.6816 128.204 11.5397C126.586 9.83502 126.455 7.64948 126.455 7.03753Z" fill="#082567"/>
<path d="M203.124 34.6627C202.512 29.8545 202.031 26.0517 199.365 21.768C198.753 20.8064 196.218 16.9161 191.235 13.9001C185.028 10.1846 178.952 10.1846 175.324 10.2284C171.346 10.3158 164.309 10.4032 158.058 14.818C144.683 24.3032 147.437 44.7162 147.655 46.2898C148.223 50.0489 149.185 56.2558 153.993 61.7197C162.648 71.4672 177.99 71.5983 187.476 67.8392C189.661 66.965 194.12 65.1291 197.748 60.5832C200.327 57.3486 201.245 54.2451 202.075 51.6225C204.304 44.4102 203.605 38.2907 203.124 34.6627ZM186.995 39.908C186.995 44.1042 186.995 50.9668 182.187 54.5948C179.564 56.5618 176.548 56.7804 176.023 56.7804C175.63 56.7804 171.827 56.9552 168.68 54.5511C163.828 50.8794 163.959 43.8857 164.003 39.296C164.09 34.7938 164.178 29.5485 168.068 26.0954C171.259 23.2542 175.149 23.2105 175.543 23.2105C175.98 23.2105 179.564 23.2542 182.58 25.7457C186.995 29.3737 186.995 35.5369 186.995 39.908Z" fill="#082567"/>
<path d="M251.862 39.3398C251.337 35.537 250.9 32.4335 248.802 28.9367C247.709 27.1445 246.004 24.3908 242.595 22.7735C240.104 21.5933 237.831 21.5933 236.476 21.5933C235.164 21.5933 231.624 21.6807 228.083 24.0411C226.029 25.3961 224.761 27.0134 224.062 28.0625C223.187 26.0955 222.313 24.1722 221.395 22.2052H209.025V86.3727H224.411V70.7242L224.105 65.7412L223.756 62.5066L224.411 62.5503L225.592 63.8616C226.597 64.867 228.739 66.6154 231.886 67.4896C237.35 68.9758 241.808 66.7028 242.726 66.222C245.655 64.6484 247.228 62.4629 248.103 61.2827C250.463 58.0044 251.119 54.8572 251.687 51.7537C252.78 46.2024 252.211 41.9188 251.862 39.3398ZM236.388 44.3666C236.301 49.3496 236.213 51.9723 234.246 53.7207C233.94 53.983 232.542 55.2506 230.531 55.2506C228.608 55.2506 227.296 54.1141 226.99 53.8081C224.542 51.71 224.586 48.1257 224.63 43.7546C224.674 39.9081 224.717 37.3291 226.641 35.4059C227.034 35.0125 228.389 33.7012 230.4 33.6137C232.891 33.5263 234.64 35.4059 234.946 35.7993C236.476 37.6351 236.476 39.9081 236.388 44.3666Z" fill="#082567"/>
<path d="M291.551 25.0903L287.311 34.8815C287.18 34.8378 286.961 34.7503 286.699 34.6192C279.705 31.6906 276.602 31.5595 275.684 31.5157C272.581 31.472 271.969 32.3025 271.794 32.5648C271.4 33.2205 271.619 34.0073 271.663 34.051C272.012 35.2312 273.498 35.7557 274.154 35.9742C278.831 37.5915 282.853 39.646 283.858 40.1705C285.694 41.1321 287.049 41.8752 288.448 43.3614C288.972 43.9296 290.764 45.984 291.595 49.2623C292.25 51.8413 291.944 53.8957 291.813 54.901C291.595 56.2998 291.07 59.6655 288.448 62.5067C287.923 63.0749 286.524 64.4737 283.333 65.785C275.771 68.9322 268.166 67.6209 263.62 66.7904C261.041 66.3095 258.724 65.6976 256.757 65.0419C256.757 60.9768 256.757 56.868 256.757 52.8029C257.194 52.9777 257.763 53.1963 258.506 53.5023C262.527 55.0759 265.893 55.7752 265.893 55.7752C267.204 55.9501 276.121 57.0866 277.039 54.8136C277.258 54.2454 277.17 53.6334 277.17 53.6334C276.952 52.3221 275.422 51.579 274.548 51.1419C271.138 49.5246 268.734 48.6941 266.854 47.8636C264.625 46.9019 263.095 46.2026 261.391 44.7164C260.429 43.8859 258.375 42.05 257.369 38.9466C256.801 37.1544 256.757 35.5808 256.757 34.5755C256.757 33.4827 256.714 32.084 257.194 30.5104C258.287 26.8387 261.347 24.828 262.483 24.0849C264.101 22.9921 265.805 22.3365 267.86 21.8557C274.198 20.3258 280.492 21.3311 284.208 22.2053C285.869 22.5987 287.704 23.2107 289.628 24.1286C290.327 24.4346 290.939 24.7843 291.551 25.0903Z" fill="#082567"/>
<path d="M67.7955 8.04305V48.6504C67.7955 49.0438 67.7955 49.4372 67.7517 49.8743C67.0524 66.2658 52.4967 79.3791 34.6627 79.3791C34.4441 79.3791 34.1818 79.3791 33.9633 79.3791C33.9196 79.3791 33.8759 79.3791 33.8322 79.3791C33.6136 79.3791 33.3513 79.3791 33.1328 79.3791C15.2988 79.3791 0.743084 66.2658 0.0437108 49.8743C0.0437108 49.4809 0 49.0875 0 48.6504V8.04305C0 4.19649 3.14718 1.04932 6.99373 1.04932H12.4139C16.2604 1.04932 19.4076 4.19649 19.4076 8.04305V45.3721C19.4076 53.7208 25.7894 60.5834 33.8759 60.9768H33.9196C41.9624 60.5397 48.3879 53.7208 48.3879 45.3721V8.04305C48.3879 4.19649 51.535 1.04932 55.3816 1.04932H60.758C64.6483 1.04932 67.7955 4.19649 67.7955 8.04305Z" fill="#082567"/>
</svg>
