<svg xmlns="http://www.w3.org/2000/svg" xmlns:xlink="http://www.w3.org/1999/xlink" viewBox="0 0 668.09 197.55"><defs><style>.cls-1{fill:#1848a0;}.cls-2{fill:url(#linear-gradient);}</style><linearGradient id="linear-gradient" x1="24.26" y1="-18.45" x2="154.39" y2="201.75" gradientUnits="userSpaceOnUse"><stop offset="0.05" stop-color="#00bdff"/><stop offset="0.24" stop-color="#0895df"/><stop offset="0.48" stop-color="#1169bb"/><stop offset="0.62" stop-color="#1554aa"/><stop offset="0.72" stop-color="#1848a0"/></linearGradient></defs><g id="Layer_2" data-name="Layer 2"><g id="Slides"><path class="cls-1" d="M172.84,40.7H199c.59,3.46,2.34,12.35,5.63,12.62h.14c4.08.06,10.35-6.76,15.34-10,6.16-3.95,13-4.06,16-4.12a60.71,60.71,0,0,1,11.08,1c.06,0,1.45.27,2.34.47,4.48,1.05,9.95,4.23,14.14,8.89a33.41,33.41,0,0,1,8.12,19.93c.06.63.08,1.68.13,3.76.21,8.71,0,15.13,0,17v52.44H237.33V94.66c0-5.53,0-9.3,0-11.83,0-.3,0-.51,0-.82,0-1.69-.1-5.73-2-9a14,14,0,0,0-7.88-6c-6.23-1.63-12.21,2.2-15.08,5.94-2.13,2.77-2.84,5.89-3.58,9.14a36.47,36.47,0,0,0-.88,7.4c-.27,10.28,0,22.86,0,25.56v27.77H172.84Z"/><rect class="cls-1" x="288.98" y="39.91" width="35.55" height="102.17"/><path class="cls-1" d="M289.26,16.09c0-1.09-.26-7,4-11.51S303.34.05,307.92,0s10.35-.1,14.48,4.19c3.85,4,3.91,9.33,3.92,11s.08,6.83-3.66,11c-4.15,4.62-10.17,4.77-14.18,4.88s-10.57.26-15.18-4.62A15.92,15.92,0,0,1,289.26,16.09Z"/><path class="cls-1" d="M464.74,79.29c-1.37-11-2.47-19.74-8.6-29.47a57.09,57.09,0,0,0-18.6-18c-14.19-8.55-28.09-8.5-36.44-8.36-9.13.16-25.21.43-39.48,10.51C331,55.65,337.3,102.38,337.84,106c1.3,8.64,3.49,22.82,14.55,35.29,19.79,22.3,54.86,22.64,76.57,14,5-2,15.24-6.18,23.51-16.55,5.88-7.38,8-14.47,9.87-20.5C467.4,101.64,465.79,87.62,464.74,79.29Zm-37,12c0,9.65,0,25.33-11,33.6a26.67,26.67,0,0,1-14.12,5c-.89.05-9.59.35-16.84-5.1-11.12-8.37-10.85-24.35-10.67-34.87.18-10.26.38-22.26,9.32-30.24a27.39,27.39,0,0,1,17.09-6.63,26.85,26.85,0,0,1,16.1,5.81C427.78,67.24,427.76,81.31,427.75,91.31Z"/><path class="cls-1" d="M576.19,90c-1.19-8.67-2.17-15.78-7-23.78-2.46-4.12-6.36-10.43-14.16-14.11a31,31,0,0,0-14-2.72A34.28,34.28,0,0,0,521.9,55a33.14,33.14,0,0,0-9.17,9.24q-3-6.71-6.07-13.41H478.31V197.55h35.18V161.74l-.69-11.45-.83-7.4,1.46.07,2.66,3a33.64,33.64,0,0,0,14.42,8.29,34.37,34.37,0,0,0,24.8-2.92A35.8,35.8,0,0,0,567.64,140c5.42-7.5,6.87-14.72,8.23-21.77A83.2,83.2,0,0,0,576.19,90Zm-35.38,11.52c-.18,11.39-.38,17.36-4.88,21.42a11.93,11.93,0,0,1-16.62.18c-5.62-4.85-5.5-13-5.44-23,.06-8.78.17-14.71,4.57-19.14A13,13,0,0,1,527,76.89c5.72-.23,9.65,4.13,10.42,5C541,86.07,541,91.26,540.81,101.52Z"/><path class="cls-1" d="M667,57.41l-9.7,22.44-1.39-.59c-16-6.73-23.12-7.05-25.22-7.09-7.06-.14-8.48,1.79-8.86,2.45a4.7,4.7,0,0,0-.34,3.37c.82,2.7,4.2,3.86,5.7,4.39A184.55,184.55,0,0,1,649.41,92c4.24,2.21,7.35,3.87,10.55,7.3a31.06,31.06,0,0,1,7.21,13.45,32.3,32.3,0,0,1,.49,12.91c-.47,3.19-1.71,10.93-7.7,17.37-1.24,1.33-4.41,4.47-11.67,7.49-17.28,7.19-34.74,4.17-45.06,2.26a119.57,119.57,0,0,1-15.73-4.05v-28c1,.4,2.32,1,4,1.56a113.3,113.3,0,0,0,16.92,5.19c3,.4,23.36,3,25.47-2.15a5.46,5.46,0,0,0,.3-2.66c-.52-3-4-4.74-6-5.69-7.82-3.7-13.27-5.62-17.58-7.51-5.06-2.21-8.59-3.76-12.49-7.17a29.43,29.43,0,0,1-9.19-13.16,31.57,31.57,0,0,1-1.39-10,30,30,0,0,1,1-9.32c2.51-8.39,9.46-13,12.06-14.72A36.85,36.85,0,0,1,612.8,50c14.53-3.48,28.86-1.21,37.41.8a70.42,70.42,0,0,1,12.45,4.39Q665,56.29,667,57.41Z"/><path class="cls-2" d="M155.06,18.41v93c0,.92,0,1.84-.07,2.76-1.56,37.51-34.85,67.47-75.7,67.47-.54,0-1.08,0-1.61,0-.1,0-.2,0-.3,0-.53,0-1.07,0-1.61,0-40.85,0-74.14-30-75.7-67.47,0-.92-.07-1.84-.07-2.76V18.41a16,16,0,0,1,16-16H28.44a16,16,0,0,1,16,16V103.8c0,19.13,14.64,34.75,33.05,35.71h.06c18.41-1,33.05-16.58,33.05-35.71V18.41a16,16,0,0,1,16-16h12.43A16,16,0,0,1,155.06,18.41Z"/></g></g></svg>