<svg width="29" height="33" viewBox="0 0 29 33" fill="none" xmlns="http://www.w3.org/2000/svg">
<path d="M13.4583 2V16.6969H15.5417V2H13.4583Z" fill="#DCDCE2"/>
<path d="M4.08333 18.4027C4.08333 14.4516 6.24879 11.0088 9.45385 9.21648L8.44301 7.38062C4.60286 9.52811 2 13.6583 2 18.4027C2 25.36 7.59644 31 14.5 31C21.4036 31 27 25.36 27 18.4027C27 13.7386 24.4843 9.66782 20.7508 7.49127L19.7076 9.30866C22.8238 11.1254 24.9167 14.5183 24.9167 18.4027C24.9167 24.2004 20.253 28.9004 14.5 28.9004C8.74703 28.9004 4.08333 24.2004 4.08333 18.4027Z" fill="#DCDCE2"/>
<path d="M13.4583 2V16.6969H15.5417V2H13.4583Z" stroke="#DCDCE2" stroke-width="3"/>
<path d="M4.08333 18.4027C4.08333 14.4516 6.24879 11.0088 9.45385 9.21648L8.44301 7.38062C4.60286 9.52811 2 13.6583 2 18.4027C2 25.36 7.59644 31 14.5 31C21.4036 31 27 25.36 27 18.4027C27 13.7386 24.4843 9.66782 20.7508 7.49127L19.7076 9.30866C22.8238 11.1254 24.9167 14.5183 24.9167 18.4027C24.9167 24.2004 20.253 28.9004 14.5 28.9004C8.74703 28.9004 4.08333 24.2004 4.08333 18.4027Z" stroke="#DCDCE2" stroke-width="3"/>
</svg>
