<svg xmlns="http://www.w3.org/2000/svg" width="25" height="23" viewBox="0 0 25 23" fill="none">
<path d="M18.3471 14.4776C19.5827 12.9823 20.3125 11.1364 20.3125 9.13886C20.3125 4.15296 15.7654 0.111084 10.1562 0.111084C4.54711 0.111084 0 4.15296 0 9.13886C0 14.1248 4.54711 18.1666 10.1562 18.1666C12.404 18.1666 14.4813 17.5176 16.1637 16.4187L16.1623 16.4196C16.2084 16.4752 16.2597 16.5284 16.3163 16.5786L22.3326 21.9265C22.9428 22.4689 23.9322 22.4689 24.5424 21.9265C25.1525 21.3841 25.1525 20.5047 24.5424 19.9623L18.526 14.6145C18.4694 14.5642 18.4096 14.5186 18.3471 14.4776ZM18.75 9.13886C18.75 13.3577 14.9024 16.7777 10.1562 16.7777C5.41005 16.7777 1.5625 13.3577 1.5625 9.13886C1.5625 4.92002 5.41005 1.49997 10.1562 1.49997C14.9024 1.49997 18.75 4.92002 18.75 9.13886Z" fill="#000302"/>
</svg>