<svg width="32" height="32" viewBox="0 0 32 32" fill="none" xmlns="http://www.w3.org/2000/svg">
<path d="M21.4977 12C21.4977 15.3137 18.8728 18 15.6347 18C12.3967 18 9.77169 15.3137 9.77169 12C9.77169 8.68629 12.3967 6 15.6347 6C18.8728 6 21.4977 8.68629 21.4977 12Z" fill="#010127"/>
<path fill-rule="evenodd" clip-rule="evenodd" d="M0 16C0 7.16344 6.9999 0 15.6347 0C24.2695 0 31.2694 7.16344 31.2694 16C31.2694 24.8366 24.2695 32 15.6347 32C6.9999 32 0 24.8366 0 16ZM15.6347 2C8.07925 2 1.95434 8.26801 1.95434 16C1.95434 19.3069 3.07467 22.3459 4.94811 24.7414C6.33778 22.4505 9.38989 20 15.6347 20C21.8795 20 24.9316 22.4505 26.3213 24.7414C28.1947 22.3459 29.3151 19.3069 29.3151 16C29.3151 8.26801 23.1902 2 15.6347 2Z" fill="#010127"/>
</svg>