<svg width="119" height="157" viewBox="0 0 119 157" fill="none" xmlns="http://www.w3.org/2000/svg">
<path d="M98.9394 0H19.7879C8.85934 0 0 8.75866 0 19.563V136.941C0 147.745 8.85934 156.504 19.7879 156.504H98.9394C109.868 156.504 118.727 147.745 118.727 136.941V19.563C118.727 8.75866 109.868 0 98.9394 0ZM29.6818 39.126H89.0454C91.7776 39.126 93.9924 41.3157 93.9924 44.0168C93.9924 46.7179 91.7776 48.9075 89.0454 48.9075H29.6818C26.9497 48.9075 24.7348 46.7179 24.7348 44.0168C24.7348 41.3157 26.9497 39.126 29.6818 39.126ZM24.7348 63.5798C24.7348 60.8787 26.9497 58.689 29.6818 58.689H89.0454C91.7776 58.689 93.9924 60.8787 93.9924 63.5798C93.9924 66.2809 91.7776 68.4706 89.0454 68.4706H29.6818C26.9497 68.4706 24.7348 66.2809 24.7348 63.5798ZM29.6818 78.2521H89.0454C91.7776 78.2521 93.9924 80.4417 93.9924 83.1428C93.9924 85.8439 91.7776 88.0336 89.0454 88.0336H29.6818C26.9497 88.0336 24.7348 85.8439 24.7348 83.1428C24.7348 80.4417 26.9497 78.2521 29.6818 78.2521ZM29.6818 97.8151H59.3636C62.0958 97.8151 64.3106 100.005 64.3106 102.706C64.3106 105.407 62.0958 107.597 59.3636 107.597H29.6818C26.9497 107.597 24.7348 105.407 24.7348 102.706C24.7348 100.005 26.9497 97.8151 29.6818 97.8151Z" fill="#DCDCE2"/>
</svg>
