<svg width="22" height="25" viewBox="0 0 22 25" fill="none" xmlns="http://www.w3.org/2000/svg">
<path d="M0.785714 23.4375C0.351776 23.4375 0 23.7873 0 24.2188C0 24.6502 0.351776 25 0.785714 25H21.2143C21.6482 25 22 24.6502 22 24.2188C22 23.7873 21.6482 23.4375 21.2143 23.4375H18.8571V3.90625C18.8571 2.61184 17.8018 1.5625 16.5 1.5625H15.7143V0.781255C15.7143 0.554777 15.6154 0.339445 15.4434 0.191057C15.2713 0.0426682 15.0429 -0.0241717 14.8175 0.0078571L3.81745 1.57036C3.43037 1.62534 3.14286 1.95497 3.14286 2.34375V23.4375H0.785714ZM15.7143 3.125H16.5C16.9339 3.125 17.2857 3.47478 17.2857 3.90625V23.4375H15.7143V3.125ZM11.7857 15.625C11.3518 15.625 11 14.9254 11 14.0625C11 13.1996 11.3518 12.5 11.7857 12.5C12.2197 12.5 12.5714 13.1996 12.5714 14.0625C12.5714 14.9254 12.2197 15.625 11.7857 15.625Z" fill="#DCDCE2"/>
</svg>
