<svg width="24" height="27" viewBox="0 0 24 27" fill="none" xmlns="http://www.w3.org/2000/svg">
<path d="M12.8103 0.587035C12.6911 0.235748 12.3657 0 12 0C11.6343 0 11.3089 0.235748 11.1897 0.587035L10.2067 3.48384H1.71429C0.767512 3.48384 0 4.26372 0 5.22576V17.4192C0 18.3812 0.767513 19.1611 1.71429 19.1611H4.88646L2.61828 25.8449C2.46396 26.2996 2.70165 26.7954 3.14917 26.9522C3.5967 27.109 4.0846 26.8675 4.23892 26.4127L6.6998 19.1611H11.1429V23.5159C11.1429 23.9969 11.5266 24.3869 12 24.3869C12.4734 24.3869 12.8572 23.9969 12.8572 23.5159V19.1611H17.3002L19.7611 26.4127C19.9155 26.8675 20.4033 27.109 20.8509 26.9522C21.2984 26.7954 21.5361 26.2996 21.3818 25.8449L19.1136 19.1611H22.2857C23.2325 19.1611 24 18.3812 24 17.4192V5.22576C24 4.26372 23.2325 3.48384 22.2857 3.48384H13.7934L12.8103 0.587035Z" fill="#DCDCE2"/>
</svg>
