<svg width="23" height="23" viewBox="0 0 23 23" fill="none" xmlns="http://www.w3.org/2000/svg">
<path d="M0 2.875C0 1.28718 1.28718 0 2.875 0H20.125C21.7128 0 23 1.28718 23 2.875V20.125C23 21.7128 21.7128 23 20.125 23H2.875C1.28718 23 0 21.7128 0 20.125V2.875ZM21.5625 5.75H15.8125V10.0625H21.5625V5.75ZM21.5625 11.5H15.8125V15.8125H21.5625V11.5ZM21.5625 17.25H15.8125V21.5625H20.125C20.9189 21.5625 21.5625 20.9189 21.5625 20.125V17.25ZM14.375 21.5625V17.25H8.625V21.5625H14.375ZM7.1875 21.5625V17.25H1.4375V20.125C1.4375 20.9189 2.08109 21.5625 2.875 21.5625H7.1875ZM1.4375 15.8125H7.1875V11.5H1.4375V15.8125ZM1.4375 10.0625H7.1875V5.75H1.4375V10.0625ZM8.625 5.75V10.0625H14.375V5.75H8.625ZM14.375 11.5H8.625V15.8125H14.375V11.5Z" fill="#DCDCE2"/>
</svg>
